<svg xmlns="http://www.w3.org/2000/svg" viewBox="0 0 32 32"><defs><style>.cls-1{fill:#003c57;}</style></defs><g id="Artwork_32x32" data-name="Artwork 32x32"><path class="cls-1" d="M16,3A13,13,0,0,0,3,16V30l5.926-3.091.218.138A13,13,0,1,0,16,3ZM13.011,16.67c-.207,1.139-.365,2.031-.474,2.686-.519-.108-1.04-.23-1.232-.246-.346-.031-2.065-.341-2.422-.366s-1.01-.2-1.047-.788.677-.9,1.022-.874,2.661.295,2.67-.1A2.887,2.887,0,0,0,11,15.627a5.768,5.768,0,0,0-1.476-1.213c-.622-.363-2.082-1.371-2.557-1.687A1.021,1.021,0,0,1,6.5,11.541a.935.935,0,0,1,1.239-.264c.448.29,3.063,1.884,3.2,1.982s.421.014.281-.21S8.944,10.057,8.733,9.791s-.407-.913-.056-1.222a.77.77,0,0,1,1.109.1c.295.323,2.7,3.132,2.837,3.314s.478.2.393-.126-1.067-2.823-1.222-3.244a.9.9,0,0,1,.324-1.194c.477-.224.8.056,1.039.436s1.418,3.51,1.489,3.665.351.309.336,0-.257-2.475-.294-2.886a.585.585,0,0,1,.541-.682.92.92,0,0,1,.794.616c.1.309.693,3.573.8,3.79s1.137,1.968,1.3,2.3a1.9,1.9,0,0,1,.121.442c-.313.473-.515.78-.6.92a6.543,6.543,0,0,1-.919,1.167c.014-.261.039-.592.079-1.014l.02-.224a2.147,2.147,0,0,0-.569-1.535A1.708,1.708,0,0,0,15,13.845h-.03l-.072,0c-.437.027-1.477.264-1.72,1.9C13.162,15.841,13.1,16.2,13.011,16.67Zm12.037,3.519c-.38.238-3.514,1.411-3.669,1.48s-.3.338-.022.338h.021c.31-.013,2.476-.252,2.887-.288.026,0,.051,0,.075,0a.578.578,0,0,1,.606.547.923.923,0,0,1-.618.793c-.309.1-3.592.672-3.791.8s-2,1.113-2.3,1.293a2.577,2.577,0,0,1-1.087.194,2.7,2.7,0,0,1-1.412-.35,5.446,5.446,0,0,1-2.269-2.429,4.9,4.9,0,0,1-.1-1.927c.016-.542.744-4.382.8-4.739s.2-1.01.791-1.046H15c.564,0,.855.689.83,1.025s-.3,2.661.1,2.671h.022a2.969,2.969,0,0,0,1.332-.523,6.405,6.405,0,0,0,1.216-1.474c.236-.379,1.375-2.079,1.693-2.553a1.147,1.147,0,0,1,.911-.532.615.615,0,0,1,.276.06.936.936,0,0,1,.261,1.239c-.291.448-1.891,3.06-1.989,3.2-.081.114-.041.32.1.32a.225.225,0,0,0,.113-.038c.225-.14,3-2.269,3.263-2.479a1.307,1.307,0,0,1,.737-.247.622.622,0,0,1,.485.193.77.77,0,0,1-.1,1.109c-.323.3-3.137,2.69-3.32,2.83-.163.125-.192.407.033.407a.369.369,0,0,0,.092-.013c.324-.084,2.826-1.062,3.247-1.215a1.428,1.428,0,0,1,.485-.091.729.729,0,0,1,.708.416C25.709,19.628,25.427,19.951,25.048,20.189Z"/></g></svg>