<svg xmlns="http://www.w3.org/2000/svg" viewBox="0 0 16 16"><defs><style>.cls-1{fill:#003c57;}</style></defs><g id="Artwork_32x32" data-name="Artwork 32x32"><path class="cls-1" d="M8,1.5A6.5,6.5,0,0,0,1.5,8v7l2.963-1.546.109.07A6.5,6.5,0,1,0,8,1.5ZM6.505,8.335c-.1.57-.182,1.015-.236,1.343-.26-.054-.521-.115-.616-.123-.174-.015-1.033-.171-1.212-.183s-.5-.1-.523-.394.339-.45.511-.437,1.331.147,1.335-.051A1.451,1.451,0,0,0,5.5,7.813a2.915,2.915,0,0,0-.738-.606c-.311-.182-1.041-.685-1.278-.843a.512.512,0,0,1-.238-.594.469.469,0,0,1,.62-.131c.224.145,1.532.941,1.6.991s.211.007.14-.106S4.472,5.029,4.366,4.895s-.2-.456-.028-.611a.386.386,0,0,1,.555.05C5.041,4.5,6.241,5.9,6.312,5.991s.238.1.2-.064S5.975,4.516,5.9,4.305a.447.447,0,0,1,.162-.6c.238-.113.4.028.519.217s.71,1.756.745,1.833.175.154.168,0-.129-1.238-.147-1.443a.292.292,0,0,1,.271-.341.462.462,0,0,1,.4.308c.051.154.346,1.787.4,1.895s.569.984.649,1.148a.992.992,0,0,1,.061.222c-.157.236-.258.39-.3.46a3.282,3.282,0,0,1-.46.583c.007-.13.019-.3.039-.507l.01-.112a1.065,1.065,0,0,0-.284-.767A.853.853,0,0,0,7.5,6.923H7.448c-.218.013-.739.132-.86.948C6.581,7.921,6.548,8.1,6.505,8.335Zm6.019,1.759c-.19.119-1.757.706-1.834.741s-.152.168-.011.168h.01c.155-.006,1.238-.126,1.444-.144l.037,0a.289.289,0,0,1,.3.274.461.461,0,0,1-.309.4c-.154.051-1.8.336-1.9.4s-1,.557-1.15.647a1.29,1.29,0,0,1-.543.1,1.354,1.354,0,0,1-.706-.175,2.72,2.72,0,0,1-1.134-1.215,2.437,2.437,0,0,1-.051-.964c.008-.271.372-2.19.4-2.369s.1-.5.395-.523H7.5c.282,0,.427.344.415.512s-.15,1.33.048,1.335h.011a1.481,1.481,0,0,0,.666-.262,3.214,3.214,0,0,0,.608-.737c.118-.19.688-1.04.846-1.277a.576.576,0,0,1,.456-.266.308.308,0,0,1,.138.03.468.468,0,0,1,.13.62c-.145.224-.945,1.53-.994,1.6s-.02.16.049.16a.113.113,0,0,0,.056-.019c.112-.07,1.5-1.135,1.632-1.24a.651.651,0,0,1,.368-.123.306.306,0,0,1,.242.1.384.384,0,0,1-.05.554c-.162.147-1.568,1.345-1.66,1.415s-.1.2.016.2a.216.216,0,0,0,.047-.006c.161-.042,1.412-.531,1.623-.608a.736.736,0,0,1,.242-.045.366.366,0,0,1,.355.208C12.854,9.814,12.714,9.975,12.524,10.094Z"/></g></svg>